<svg width="110" height="40" viewBox="0 0 110 40" fill="none" xmlns="http://www.w3.org/2000/svg">
<rect width="110" height="40" fill="#F2F2F2"/>
<path d="M21.1899 15.894C21.4232 15.894 21.7359 16.0667 22.1279 16.412C22.5292 16.7573 22.7299 17.042 22.7299 17.266C22.7299 17.8073 22.3986 19.1093 21.7359 21.172C21.0732 23.2253 20.5739 24.252 20.2379 24.252C20.0606 24.252 19.8599 24.1213 19.6359 23.86C19.4212 23.5893 19.3139 23.3607 19.3139 23.174C19.3139 22.9873 19.3372 22.7913 19.3839 22.586C19.4306 22.3713 19.4772 22.1753 19.5239 21.998C19.5799 21.8113 19.6592 21.55 19.7619 21.214C19.8739 20.878 19.9626 20.6073 20.0279 20.402C19.3559 20.6353 18.6932 20.752 18.0399 20.752C17.3959 20.752 16.8919 20.5747 16.5279 20.22C16.1732 19.8653 15.9959 19.3893 15.9959 18.792C15.9959 18.3627 16.2246 17.7093 16.6819 16.832C17.1486 15.9547 17.6619 15.166 18.2219 14.466C18.7819 13.766 19.1786 13.416 19.4119 13.416C19.6546 13.416 19.9019 13.5327 20.1539 13.766C20.4152 13.9993 20.5459 14.2187 20.5459 14.424C20.5459 14.62 20.1072 15.3387 19.2299 16.58C18.3619 17.8213 17.9279 18.554 17.9279 18.778C17.9279 18.8713 17.9466 18.932 17.9839 18.96C18.0212 18.988 18.1052 19.002 18.2359 19.002C18.5532 19.002 19.0106 18.876 19.6079 18.624C20.2052 18.372 20.5272 18.2413 20.5739 18.232C20.6952 17.5693 20.7559 16.93 20.7559 16.314C20.7559 16.034 20.9006 15.894 21.1899 15.894ZM31.8955 19.03V18.974C31.8955 18.862 31.9468 18.7687 32.0495 18.694C32.1708 18.5447 32.4088 18.3393 32.7635 18.078C33.1182 17.8167 33.4495 17.574 33.7575 17.35C34.0748 17.1167 34.3595 16.8413 34.6115 16.524C34.8635 16.2067 34.9895 15.8987 34.9895 15.6C34.9895 15.488 34.9475 15.432 34.8635 15.432C34.5555 15.432 34.1168 15.586 33.5475 15.894C32.9782 16.1927 32.6142 16.342 32.4555 16.342C32.2968 16.342 32.0448 16.1787 31.6995 15.852C31.3542 15.516 31.1815 15.2687 31.1815 15.11C31.1815 14.8487 31.4008 14.5967 31.8395 14.354C32.2782 14.102 32.7775 13.9107 33.3375 13.78C33.9068 13.64 34.4062 13.57 34.8355 13.57C35.4515 13.57 35.9835 13.794 36.4315 14.242C36.8888 14.69 37.1175 15.1613 37.1175 15.656C37.1175 16.1507 36.9075 16.664 36.4875 17.196C36.0768 17.7187 35.5635 18.19 34.9475 18.61C36.2542 18.8993 36.9075 19.492 36.9075 20.388C36.9075 20.9573 36.5762 21.5173 35.9135 22.068C35.2602 22.6093 34.4668 23.0387 33.5335 23.356C32.6002 23.6733 31.7182 23.832 30.8875 23.832C29.8795 23.832 29.3755 23.6127 29.3755 23.174C29.3755 22.9313 30.2155 22.5627 31.8955 22.068C32.5208 21.8907 33.0948 21.648 33.6175 21.34C34.1495 21.032 34.4155 20.7147 34.4155 20.388C34.4155 20.2107 34.3222 20.0753 34.1355 19.982C33.9488 19.8793 33.7388 19.814 33.5055 19.786C32.7962 19.702 32.3342 19.576 32.1195 19.408C31.9702 19.3147 31.8955 19.1887 31.8955 19.03ZM49.6985 13.654C51.4065 13.654 52.2605 13.8593 52.2605 14.27C52.2605 14.4473 52.1158 14.6013 51.8265 14.732C51.4812 14.9 51.0612 15.04 50.5665 15.152C50.0812 15.264 49.6892 15.3527 49.3905 15.418C49.1012 15.4833 48.8725 15.5393 48.7045 15.586C48.5365 15.6233 48.3685 15.8147 48.2005 16.16C48.0418 16.5053 47.9625 16.776 47.9625 16.972C47.9625 17.168 48.0512 17.3733 48.2285 17.588C48.4152 17.8027 48.6392 18.0127 48.9005 18.218C49.1618 18.4233 49.4232 18.638 49.6845 18.862C50.3098 19.394 50.6225 19.9353 50.6225 20.486C50.6225 21.3353 50.2025 22.1147 49.3625 22.824C48.5318 23.524 47.7152 23.874 46.9125 23.874C46.1098 23.874 45.4238 23.6593 44.8545 23.23C44.2945 22.7913 44.0145 22.2967 44.0145 21.746C44.0145 21.5687 44.0472 21.4147 44.1125 21.284C44.1778 21.1533 44.2665 21.088 44.3785 21.088C44.4905 21.088 44.6352 21.172 44.8125 21.34C45.3632 21.8627 45.8532 22.124 46.2825 22.124C46.7118 22.124 47.1738 21.9467 47.6685 21.592C48.1725 21.2373 48.4245 20.8827 48.4245 20.528C48.4245 20.2107 48.1118 19.842 47.4865 19.422C47.2252 19.2447 46.9638 19.0533 46.7025 18.848C46.4505 18.6427 46.2312 18.3813 46.0445 18.064C45.8672 17.7467 45.7785 17.364 45.7785 16.916C45.7785 16.468 46.0025 15.8473 46.4505 15.054C46.8985 14.2513 47.3092 13.8173 47.6825 13.752C48.0558 13.6867 48.7278 13.654 49.6985 13.654ZM60.5992 21.914C62.2699 21.606 63.5346 21.452 64.3932 21.452C65.2612 21.452 65.6952 21.6387 65.6952 22.012C65.6952 22.3667 64.9532 22.7493 63.4692 23.16C61.9946 23.5707 60.8606 23.776 60.0672 23.776C59.7406 23.776 59.3439 23.566 58.8772 23.146C58.4106 22.726 58.1772 22.3527 58.1772 22.026C58.1772 21.8113 58.7746 21.214 59.9692 20.234C60.4639 19.8233 60.9586 19.394 61.4532 18.946C61.9479 18.4887 62.3679 18.022 62.7132 17.546C63.0679 17.07 63.2452 16.6453 63.2452 16.272C63.2452 15.8893 63.0679 15.698 62.7132 15.698C62.4426 15.698 62.1999 15.8007 61.9852 16.006C61.7799 16.202 61.6166 16.4027 61.4952 16.608C61.3832 16.804 61.2992 16.902 61.2432 16.902C61.0006 16.902 60.6926 16.7713 60.3192 16.51C59.9552 16.2393 59.7732 16.006 59.7732 15.81C59.7732 15.278 60.0532 14.774 60.6132 14.298C61.1826 13.8127 61.8639 13.57 62.6572 13.57C63.4599 13.57 64.0899 13.8173 64.5472 14.312C65.0046 14.7973 65.2332 15.418 65.2332 16.174C65.2332 17.1913 64.7946 18.2133 63.9172 19.24C63.0492 20.2667 61.9432 21.158 60.5992 21.914ZM77.6901 15.488L75.4641 15.684C75.2307 15.684 74.9601 15.4833 74.6521 15.082C74.3534 14.6807 74.2041 14.3727 74.2041 14.158C74.2041 13.8033 75.2074 13.626 77.2141 13.626C78.3341 13.626 78.9687 13.696 79.1181 13.836C79.3327 14.032 79.5334 14.326 79.7201 14.718C79.9161 15.1007 80.0141 15.4553 80.0141 15.782C80.0141 15.9687 79.9114 16.2487 79.7061 16.622C79.5101 16.9953 79.3561 17.2847 79.2441 17.49C79.1321 17.686 78.9687 17.9613 78.7541 18.316C78.5487 18.6613 78.3574 18.9833 78.1801 19.282C78.0121 19.5713 77.7787 19.996 77.4801 20.556C77.1814 21.1067 76.9341 21.564 76.7381 21.928C76.5514 22.2827 76.3554 22.6327 76.1501 22.978C75.7581 23.6593 75.4547 24 75.2401 24C75.0347 24 74.8247 23.8693 74.6101 23.608C74.4047 23.3467 74.3021 23.0713 74.3021 22.782C74.3021 22.4833 74.5027 21.956 74.9041 21.2C75.3147 20.444 75.7581 19.6973 76.2341 18.96C77.5314 16.9907 78.1801 15.88 78.1801 15.628C78.1801 15.5347 78.0167 15.488 77.6901 15.488ZM94.7063 15.642C94.7063 16.51 93.927 17.6253 92.3683 18.988C93.115 19.7533 93.4883 20.5047 93.4883 21.242C93.4883 21.886 93.0496 22.474 92.1723 23.006C91.3043 23.5287 90.4363 23.79 89.5683 23.79C89.167 23.79 88.7003 23.594 88.1683 23.202C87.6456 22.81 87.3843 22.39 87.3843 21.942C87.3843 21.1207 88.1123 20.1033 89.5683 18.89C89.1296 18.554 88.7843 18.2833 88.5323 18.078C88.2896 17.8633 88.0563 17.6113 87.8323 17.322C87.6083 17.0233 87.4963 16.748 87.4963 16.496C87.4963 16.2347 87.5383 15.9593 87.6223 15.67C87.7156 15.3713 87.837 15.222 87.9863 15.222C88.089 15.222 88.1916 15.264 88.2943 15.348C88.397 15.432 88.5276 15.5673 88.6863 15.754C88.845 15.9407 88.971 16.0853 89.0643 16.188C89.1576 16.2813 89.293 16.4073 89.4703 16.566C89.657 16.7153 89.8016 16.8367 89.9043 16.93C90.007 17.014 90.1936 17.1633 90.4643 17.378C90.735 17.5833 90.8983 17.7093 90.9543 17.756C91.5516 17.28 92.0043 16.8833 92.3123 16.566C92.6296 16.2393 92.7883 15.95 92.7883 15.698C92.7883 15.4367 92.6296 15.306 92.3123 15.306C91.8923 15.306 91.4256 15.446 90.9123 15.726C90.4083 16.006 90.0676 16.146 89.8903 16.146C89.7223 16.146 89.517 16.0573 89.2743 15.88C89.0316 15.7027 88.9103 15.5207 88.9103 15.334C88.9103 14.8673 89.2276 14.4567 89.8623 14.102C90.5063 13.7473 91.3276 13.57 92.3263 13.57C93.0543 13.57 93.633 13.7427 94.0623 14.088C94.4916 14.4333 94.7063 14.9513 94.7063 15.642ZM91.5283 20.906C91.5283 20.682 91.3603 20.4113 91.0243 20.094C90.147 20.7753 89.6243 21.2373 89.4563 21.48C89.3723 21.5827 89.3303 21.6713 89.3303 21.746C89.3303 21.8113 89.3863 21.8907 89.4983 21.984C89.6196 22.0773 89.7036 22.124 89.7503 22.124C90.0956 22.124 90.4783 22.0027 90.8983 21.76C91.3183 21.5173 91.5283 21.2327 91.5283 20.906Z" fill="black"/>
</svg>
