<svg width="110" height="40" viewBox="0 0 110 40" fill="none" xmlns="http://www.w3.org/2000/svg">
<rect width="110" height="40" fill="#F2F2F2"/>
<path d="M21.2859 14.928C21.2859 15.516 21.2019 16.1787 21.0339 16.916C20.8659 17.644 20.7073 18.2927 20.5579 18.862C20.4086 19.4313 20.2733 19.982 20.1519 20.514C20.0399 21.046 19.9419 21.48 19.8579 21.816C19.7833 22.1427 19.6946 22.4787 19.5919 22.824C19.3866 23.4867 19.1626 23.818 18.9199 23.818C18.7053 23.818 18.4579 23.6827 18.1779 23.412C17.9073 23.132 17.7719 22.88 17.7719 22.656C17.7719 22.432 17.8746 21.9187 18.0799 21.116C18.2853 20.3133 18.4906 19.2633 18.6959 17.966C18.9106 16.6593 19.0179 15.3013 19.0179 13.892C19.0179 13.6213 19.1533 13.486 19.4239 13.486C19.7039 13.486 20.0819 13.682 20.5579 14.074C21.0433 14.466 21.2859 14.7507 21.2859 14.928ZM33.6413 13.654C35.3493 13.654 36.2033 13.8593 36.2033 14.27C36.2033 14.4473 36.0586 14.6013 35.7693 14.732C35.4239 14.9 35.0039 15.04 34.5093 15.152C34.0239 15.264 33.6319 15.3527 33.3333 15.418C33.0439 15.4833 32.8153 15.5393 32.6473 15.586C32.4793 15.6233 32.3113 15.8147 32.1433 16.16C31.9846 16.5053 31.9053 16.776 31.9053 16.972C31.9053 17.168 31.9939 17.3733 32.1713 17.588C32.3579 17.8027 32.5819 18.0127 32.8433 18.218C33.1046 18.4233 33.3659 18.638 33.6273 18.862C34.2526 19.394 34.5653 19.9353 34.5653 20.486C34.5653 21.3353 34.1453 22.1147 33.3053 22.824C32.4746 23.524 31.6579 23.874 30.8553 23.874C30.0526 23.874 29.3666 23.6593 28.7973 23.23C28.2373 22.7913 27.9573 22.2967 27.9573 21.746C27.9573 21.5687 27.9899 21.4147 28.0553 21.284C28.1206 21.1533 28.2093 21.088 28.3213 21.088C28.4333 21.088 28.5779 21.172 28.7553 21.34C29.3059 21.8627 29.7959 22.124 30.2253 22.124C30.6546 22.124 31.1166 21.9467 31.6113 21.592C32.1153 21.2373 32.3673 20.8827 32.3673 20.528C32.3673 20.2107 32.0546 19.842 31.4293 19.422C31.1679 19.2447 30.9066 19.0533 30.6453 18.848C30.3933 18.6427 30.1739 18.3813 29.9873 18.064C29.8099 17.7467 29.7213 17.364 29.7213 16.916C29.7213 16.468 29.9453 15.8473 30.3933 15.054C30.8413 14.2513 31.2519 13.8173 31.6253 13.752C31.9986 13.6867 32.6706 13.654 33.6413 13.654ZM46.684 15.488L44.458 15.684C44.2247 15.684 43.954 15.4833 43.646 15.082C43.3473 14.6807 43.198 14.3727 43.198 14.158C43.198 13.8033 44.2013 13.626 46.208 13.626C47.328 13.626 47.9627 13.696 48.112 13.836C48.3267 14.032 48.5273 14.326 48.714 14.718C48.91 15.1007 49.008 15.4553 49.008 15.782C49.008 15.9687 48.9053 16.2487 48.7 16.622C48.504 16.9953 48.35 17.2847 48.238 17.49C48.126 17.686 47.9627 17.9613 47.748 18.316C47.5427 18.6613 47.3513 18.9833 47.174 19.282C47.006 19.5713 46.7727 19.996 46.474 20.556C46.1753 21.1067 45.928 21.564 45.732 21.928C45.5453 22.2827 45.3493 22.6327 45.144 22.978C44.752 23.6593 44.4487 24 44.234 24C44.0287 24 43.8187 23.8693 43.604 23.608C43.3987 23.3467 43.296 23.0713 43.296 22.782C43.296 22.4833 43.4967 21.956 43.898 21.2C44.3087 20.444 44.752 19.6973 45.228 18.96C46.5253 16.9907 47.174 15.88 47.174 15.628C47.174 15.5347 47.0107 15.488 46.684 15.488ZM57.9322 21.914C59.6029 21.606 60.8676 21.452 61.7262 21.452C62.5942 21.452 63.0282 21.6387 63.0282 22.012C63.0282 22.3667 62.2862 22.7493 60.8022 23.16C59.3276 23.5707 58.1936 23.776 57.4002 23.776C57.0736 23.776 56.6769 23.566 56.2102 23.146C55.7436 22.726 55.5102 22.3527 55.5102 22.026C55.5102 21.8113 56.1076 21.214 57.3022 20.234C57.7969 19.8233 58.2916 19.394 58.7862 18.946C59.2809 18.4887 59.7009 18.022 60.0462 17.546C60.4009 17.07 60.5782 16.6453 60.5782 16.272C60.5782 15.8893 60.4009 15.698 60.0462 15.698C59.7756 15.698 59.5329 15.8007 59.3182 16.006C59.1129 16.202 58.9496 16.4027 58.8282 16.608C58.7162 16.804 58.6322 16.902 58.5762 16.902C58.3336 16.902 58.0256 16.7713 57.6522 16.51C57.2882 16.2393 57.1062 16.006 57.1062 15.81C57.1062 15.278 57.3862 14.774 57.9462 14.298C58.5156 13.8127 59.1969 13.57 59.9902 13.57C60.7929 13.57 61.4229 13.8173 61.8802 14.312C62.3376 14.7973 62.5662 15.418 62.5662 16.174C62.5662 17.1913 62.1276 18.2133 61.2502 19.24C60.3822 20.2667 59.2762 21.158 57.9322 21.914ZM72.4891 19.03V18.974C72.4891 18.862 72.5404 18.7687 72.6431 18.694C72.7644 18.5447 73.0024 18.3393 73.3571 18.078C73.7117 17.8167 74.0431 17.574 74.3511 17.35C74.6684 17.1167 74.9531 16.8413 75.2051 16.524C75.4571 16.2067 75.5831 15.8987 75.5831 15.6C75.5831 15.488 75.5411 15.432 75.4571 15.432C75.1491 15.432 74.7104 15.586 74.1411 15.894C73.5717 16.1927 73.2077 16.342 73.0491 16.342C72.8904 16.342 72.6384 16.1787 72.2931 15.852C71.9477 15.516 71.7751 15.2687 71.7751 15.11C71.7751 14.8487 71.9944 14.5967 72.4331 14.354C72.8717 14.102 73.3711 13.9107 73.9311 13.78C74.5004 13.64 74.9997 13.57 75.4291 13.57C76.0451 13.57 76.5771 13.794 77.0251 14.242C77.4824 14.69 77.7111 15.1613 77.7111 15.656C77.7111 16.1507 77.5011 16.664 77.0811 17.196C76.6704 17.7187 76.1571 18.19 75.5411 18.61C76.8477 18.8993 77.5011 19.492 77.5011 20.388C77.5011 20.9573 77.1697 21.5173 76.5071 22.068C75.8537 22.6093 75.0604 23.0387 74.1271 23.356C73.1937 23.6733 72.3117 23.832 71.4811 23.832C70.4731 23.832 69.9691 23.6127 69.9691 23.174C69.9691 22.9313 70.8091 22.5627 72.4891 22.068C73.1144 21.8907 73.6884 21.648 74.2111 21.34C74.7431 21.032 75.0091 20.7147 75.0091 20.388C75.0091 20.2107 74.9157 20.0753 74.7291 19.982C74.5424 19.8793 74.3324 19.814 74.0991 19.786C73.3897 19.702 72.9277 19.576 72.7131 19.408C72.5637 19.3147 72.4891 19.1887 72.4891 19.03ZM91.776 17.07C91.776 17.35 91.6594 17.658 91.426 17.994C91.146 18.6753 90.9547 19.1747 90.852 19.492C90.7494 19.8093 90.5814 20.416 90.348 21.312C90.1147 22.1987 89.914 22.8753 89.746 23.342C89.578 23.8087 89.41 24.042 89.242 24.042C88.822 24.042 88.612 23.51 88.612 22.446C88.612 21.7367 88.7334 20.8733 88.976 19.856C88.5747 20.0147 88.2107 20.094 87.884 20.094C87.4454 20.094 86.974 19.8327 86.47 19.31C85.966 18.778 85.714 18.3067 85.714 17.896C85.714 17.224 85.896 16.538 86.26 15.838C86.624 15.138 87.086 14.564 87.646 14.116C88.206 13.6587 88.7707 13.43 89.34 13.43C89.9094 13.43 90.3434 13.6493 90.642 14.088C90.9407 14.5267 91.09 15.0213 91.09 15.572C91.09 15.8893 91.0667 16.146 91.02 16.342C91.412 16.4167 91.6454 16.5987 91.72 16.888C91.7574 16.9347 91.776 16.9953 91.776 17.07ZM89.396 16.874L89.452 15.922C89.452 15.754 89.4194 15.5953 89.354 15.446C89.2887 15.2873 89.2187 15.208 89.144 15.208C88.92 15.208 88.5747 15.544 88.108 16.216C87.6414 16.888 87.408 17.4527 87.408 17.91C87.408 18.05 87.4687 18.1807 87.59 18.302C87.7207 18.4233 87.8747 18.484 88.052 18.484C88.2294 18.484 88.4347 18.4093 88.668 18.26C88.9107 18.1013 89.0974 17.952 89.228 17.812C89.3587 17.672 89.5454 17.462 89.788 17.182C89.5267 17.126 89.396 17.0233 89.396 16.874Z" fill="black"/>
</svg>
