<svg width="110" height="40" viewBox="0 0 110 40" fill="none" xmlns="http://www.w3.org/2000/svg">
<rect width="110" height="40" fill="#F2F2F2"/>
<path d="M21.8028 13.654C23.5108 13.654 24.3648 13.8593 24.3648 14.27C24.3648 14.4473 24.2201 14.6013 23.9308 14.732C23.5854 14.9 23.1654 15.04 22.6708 15.152C22.1854 15.264 21.7934 15.3527 21.4948 15.418C21.2054 15.4833 20.9768 15.5393 20.8088 15.586C20.6408 15.6233 20.4728 15.8147 20.3048 16.16C20.1461 16.5053 20.0668 16.776 20.0668 16.972C20.0668 17.168 20.1554 17.3733 20.3328 17.588C20.5194 17.8027 20.7434 18.0127 21.0048 18.218C21.2661 18.4233 21.5274 18.638 21.7888 18.862C22.4141 19.394 22.7268 19.9353 22.7268 20.486C22.7268 21.3353 22.3068 22.1147 21.4668 22.824C20.6361 23.524 19.8194 23.874 19.0168 23.874C18.2141 23.874 17.5281 23.6593 16.9588 23.23C16.3988 22.7913 16.1188 22.2967 16.1188 21.746C16.1188 21.5687 16.1514 21.4147 16.2168 21.284C16.2821 21.1533 16.3708 21.088 16.4828 21.088C16.5948 21.088 16.7394 21.172 16.9168 21.34C17.4674 21.8627 17.9574 22.124 18.3868 22.124C18.8161 22.124 19.2781 21.9467 19.7728 21.592C20.2768 21.2373 20.5288 20.8827 20.5288 20.528C20.5288 20.2107 20.2161 19.842 19.5908 19.422C19.3294 19.2447 19.0681 19.0533 18.8068 18.848C18.5548 18.6427 18.3354 18.3813 18.1488 18.064C17.9714 17.7467 17.8828 17.364 17.8828 16.916C17.8828 16.468 18.1068 15.8473 18.5548 15.054C19.0028 14.2513 19.4134 13.8173 19.7868 13.752C20.1601 13.6867 20.8321 13.654 21.8028 13.654ZM32.7035 21.914C34.3742 21.606 35.6389 21.452 36.4975 21.452C37.3655 21.452 37.7995 21.6387 37.7995 22.012C37.7995 22.3667 37.0575 22.7493 35.5735 23.16C34.0989 23.5707 32.9649 23.776 32.1715 23.776C31.8449 23.776 31.4482 23.566 30.9815 23.146C30.5149 22.726 30.2815 22.3527 30.2815 22.026C30.2815 21.8113 30.8789 21.214 32.0735 20.234C32.5682 19.8233 33.0629 19.394 33.5575 18.946C34.0522 18.4887 34.4722 18.022 34.8175 17.546C35.1722 17.07 35.3495 16.6453 35.3495 16.272C35.3495 15.8893 35.1722 15.698 34.8175 15.698C34.5469 15.698 34.3042 15.8007 34.0895 16.006C33.8842 16.202 33.7209 16.4027 33.5995 16.608C33.4875 16.804 33.4035 16.902 33.3475 16.902C33.1049 16.902 32.7969 16.7713 32.4235 16.51C32.0595 16.2393 31.8775 16.006 31.8775 15.81C31.8775 15.278 32.1575 14.774 32.7175 14.298C33.2869 13.8127 33.9682 13.57 34.7615 13.57C35.5642 13.57 36.1942 13.8173 36.6515 14.312C37.1089 14.7973 37.3375 15.418 37.3375 16.174C37.3375 17.1913 36.8989 18.2133 36.0215 19.24C35.1535 20.2667 34.0475 21.158 32.7035 21.914ZM53.4204 15.642C53.4204 16.51 52.641 17.6253 51.0824 18.988C51.829 19.7533 52.2024 20.5047 52.2024 21.242C52.2024 21.886 51.7637 22.474 50.8864 23.006C50.0184 23.5287 49.1504 23.79 48.2824 23.79C47.881 23.79 47.4144 23.594 46.8824 23.202C46.3597 22.81 46.0984 22.39 46.0984 21.942C46.0984 21.1207 46.8264 20.1033 48.2824 18.89C47.8437 18.554 47.4984 18.2833 47.2464 18.078C47.0037 17.8633 46.7704 17.6113 46.5464 17.322C46.3224 17.0233 46.2104 16.748 46.2104 16.496C46.2104 16.2347 46.2524 15.9593 46.3364 15.67C46.4297 15.3713 46.551 15.222 46.7004 15.222C46.803 15.222 46.9057 15.264 47.0084 15.348C47.111 15.432 47.2417 15.5673 47.4004 15.754C47.559 15.9407 47.685 16.0853 47.7784 16.188C47.8717 16.2813 48.007 16.4073 48.1844 16.566C48.371 16.7153 48.5157 16.8367 48.6184 16.93C48.721 17.014 48.9077 17.1633 49.1784 17.378C49.449 17.5833 49.6124 17.7093 49.6684 17.756C50.2657 17.28 50.7184 16.8833 51.0264 16.566C51.3437 16.2393 51.5024 15.95 51.5024 15.698C51.5024 15.4367 51.3437 15.306 51.0264 15.306C50.6064 15.306 50.1397 15.446 49.6264 15.726C49.1224 16.006 48.7817 16.146 48.6044 16.146C48.4364 16.146 48.231 16.0573 47.9884 15.88C47.7457 15.7027 47.6244 15.5207 47.6244 15.334C47.6244 14.8673 47.9417 14.4567 48.5764 14.102C49.2204 13.7473 50.0417 13.57 51.0404 13.57C51.7684 13.57 52.347 13.7427 52.7764 14.088C53.2057 14.4333 53.4204 14.9513 53.4204 15.642ZM50.2424 20.906C50.2424 20.682 50.0744 20.4113 49.7384 20.094C48.861 20.7753 48.3384 21.2373 48.1704 21.48C48.0864 21.5827 48.0444 21.6713 48.0444 21.746C48.0444 21.8113 48.1004 21.8907 48.2124 21.984C48.3337 22.0773 48.4177 22.124 48.4644 22.124C48.8097 22.124 49.1924 22.0027 49.6124 21.76C50.0324 21.5173 50.2424 21.2327 50.2424 20.906ZM62.3049 19.03V18.974C62.3049 18.862 62.3562 18.7687 62.4589 18.694C62.5802 18.5447 62.8182 18.3393 63.1729 18.078C63.5276 17.8167 63.8589 17.574 64.1669 17.35C64.4842 17.1167 64.7689 16.8413 65.0209 16.524C65.2729 16.2067 65.3989 15.8987 65.3989 15.6C65.3989 15.488 65.3569 15.432 65.2729 15.432C64.9649 15.432 64.5262 15.586 63.9569 15.894C63.3876 16.1927 63.0236 16.342 62.8649 16.342C62.7062 16.342 62.4542 16.1787 62.1089 15.852C61.7636 15.516 61.5909 15.2687 61.5909 15.11C61.5909 14.8487 61.8102 14.5967 62.2489 14.354C62.6876 14.102 63.1869 13.9107 63.7469 13.78C64.3162 13.64 64.8156 13.57 65.2449 13.57C65.8609 13.57 66.3929 13.794 66.8409 14.242C67.2982 14.69 67.5269 15.1613 67.5269 15.656C67.5269 16.1507 67.3169 16.664 66.8969 17.196C66.4862 17.7187 65.9729 18.19 65.3569 18.61C66.6636 18.8993 67.3169 19.492 67.3169 20.388C67.3169 20.9573 66.9856 21.5173 66.3229 22.068C65.6696 22.6093 64.8762 23.0387 63.9429 23.356C63.0096 23.6733 62.1276 23.832 61.2969 23.832C60.2889 23.832 59.7849 23.6127 59.7849 23.174C59.7849 22.9313 60.6249 22.5627 62.3049 22.068C62.9302 21.8907 63.5042 21.648 64.0269 21.34C64.5589 21.032 64.8249 20.7147 64.8249 20.388C64.8249 20.2107 64.7316 20.0753 64.5449 19.982C64.3582 19.8793 64.1482 19.814 63.9149 19.786C63.2056 19.702 62.7436 19.576 62.5289 19.408C62.3796 19.3147 62.3049 19.1887 62.3049 19.03ZM80.1079 13.654C81.8159 13.654 82.6699 13.8593 82.6699 14.27C82.6699 14.4473 82.5252 14.6013 82.2359 14.732C81.8905 14.9 81.4705 15.04 80.9759 15.152C80.4905 15.264 80.0985 15.3527 79.7999 15.418C79.5105 15.4833 79.2819 15.5393 79.1139 15.586C78.9459 15.6233 78.7779 15.8147 78.6099 16.16C78.4512 16.5053 78.3719 16.776 78.3719 16.972C78.3719 17.168 78.4605 17.3733 78.6379 17.588C78.8245 17.8027 79.0485 18.0127 79.3099 18.218C79.5712 18.4233 79.8325 18.638 80.0939 18.862C80.7192 19.394 81.0319 19.9353 81.0319 20.486C81.0319 21.3353 80.6119 22.1147 79.7719 22.824C78.9412 23.524 78.1245 23.874 77.3219 23.874C76.5192 23.874 75.8332 23.6593 75.2639 23.23C74.7039 22.7913 74.4239 22.2967 74.4239 21.746C74.4239 21.5687 74.4565 21.4147 74.5219 21.284C74.5872 21.1533 74.6759 21.088 74.7879 21.088C74.8999 21.088 75.0445 21.172 75.2219 21.34C75.7725 21.8627 76.2625 22.124 76.6919 22.124C77.1212 22.124 77.5832 21.9467 78.0779 21.592C78.5819 21.2373 78.8339 20.8827 78.8339 20.528C78.8339 20.2107 78.5212 19.842 77.8959 19.422C77.6345 19.2447 77.3732 19.0533 77.1119 18.848C76.8599 18.6427 76.6405 18.3813 76.4539 18.064C76.2765 17.7467 76.1879 17.364 76.1879 16.916C76.1879 16.468 76.4119 15.8473 76.8599 15.054C77.3079 14.2513 77.7185 13.8173 78.0919 13.752C78.4652 13.6867 79.1372 13.654 80.1079 13.654ZM92.6326 14.928C92.6326 15.516 92.5486 16.1787 92.3806 16.916C92.2126 17.644 92.0539 18.2927 91.9046 18.862C91.7553 19.4313 91.6199 19.982 91.4986 20.514C91.3866 21.046 91.2886 21.48 91.2046 21.816C91.1299 22.1427 91.0413 22.4787 90.9386 22.824C90.7333 23.4867 90.5093 23.818 90.2666 23.818C90.0519 23.818 89.8046 23.6827 89.5246 23.412C89.2539 23.132 89.1186 22.88 89.1186 22.656C89.1186 22.432 89.2213 21.9187 89.4266 21.116C89.6319 20.3133 89.8373 19.2633 90.0426 17.966C90.2573 16.6593 90.3646 15.3013 90.3646 13.892C90.3646 13.6213 90.4999 13.486 90.7706 13.486C91.0506 13.486 91.4286 13.682 91.9046 14.074C92.3899 14.466 92.6326 14.7507 92.6326 14.928Z" fill="black"/>
</svg>
