<svg width="110" height="40" viewBox="0 0 110 40" fill="none" xmlns="http://www.w3.org/2000/svg">
<rect width="110" height="40" fill="#F2F2F2"/>
<path d="M24.1139 17.07C24.1139 17.35 23.9973 17.658 23.7639 17.994C23.4839 18.6753 23.2926 19.1747 23.1899 19.492C23.0873 19.8093 22.9193 20.416 22.6859 21.312C22.4526 22.1987 22.2519 22.8753 22.0839 23.342C21.9159 23.8087 21.7479 24.042 21.5799 24.042C21.1599 24.042 20.9499 23.51 20.9499 22.446C20.9499 21.7367 21.0713 20.8733 21.3139 19.856C20.9126 20.0147 20.5486 20.094 20.2219 20.094C19.7833 20.094 19.3119 19.8327 18.8079 19.31C18.3039 18.778 18.0519 18.3067 18.0519 17.896C18.0519 17.224 18.2339 16.538 18.5979 15.838C18.9619 15.138 19.4239 14.564 19.9839 14.116C20.5439 13.6587 21.1086 13.43 21.6779 13.43C22.2473 13.43 22.6813 13.6493 22.9799 14.088C23.2786 14.5267 23.4279 15.0213 23.4279 15.572C23.4279 15.8893 23.4046 16.146 23.3579 16.342C23.7499 16.4167 23.9833 16.5987 24.0579 16.888C24.0953 16.9347 24.1139 16.9953 24.1139 17.07ZM21.7339 16.874L21.7899 15.922C21.7899 15.754 21.7573 15.5953 21.6919 15.446C21.6266 15.2873 21.5566 15.208 21.4819 15.208C21.2579 15.208 20.9126 15.544 20.4459 16.216C19.9793 16.888 19.7459 17.4527 19.7459 17.91C19.7459 18.05 19.8066 18.1807 19.9279 18.302C20.0586 18.4233 20.2126 18.484 20.3899 18.484C20.5673 18.484 20.7726 18.4093 21.0059 18.26C21.2486 18.1013 21.4353 17.952 21.5659 17.812C21.6966 17.672 21.8833 17.462 22.1259 17.182C21.8646 17.126 21.7339 17.0233 21.7339 16.874ZM36.4987 13.654C38.2067 13.654 39.0607 13.8593 39.0607 14.27C39.0607 14.4473 38.916 14.6013 38.6267 14.732C38.2813 14.9 37.8613 15.04 37.3667 15.152C36.8813 15.264 36.4893 15.3527 36.1907 15.418C35.9013 15.4833 35.6727 15.5393 35.5047 15.586C35.3367 15.6233 35.1687 15.8147 35.0007 16.16C34.842 16.5053 34.7627 16.776 34.7627 16.972C34.7627 17.168 34.8513 17.3733 35.0287 17.588C35.2153 17.8027 35.4393 18.0127 35.7007 18.218C35.962 18.4233 36.2233 18.638 36.4847 18.862C37.11 19.394 37.4227 19.9353 37.4227 20.486C37.4227 21.3353 37.0027 22.1147 36.1627 22.824C35.332 23.524 34.5153 23.874 33.7127 23.874C32.91 23.874 32.224 23.6593 31.6547 23.23C31.0947 22.7913 30.8147 22.2967 30.8147 21.746C30.8147 21.5687 30.8473 21.4147 30.9127 21.284C30.978 21.1533 31.0667 21.088 31.1787 21.088C31.2907 21.088 31.4353 21.172 31.6127 21.34C32.1633 21.8627 32.6533 22.124 33.0827 22.124C33.512 22.124 33.974 21.9467 34.4687 21.592C34.9727 21.2373 35.2247 20.8827 35.2247 20.528C35.2247 20.2107 34.912 19.842 34.2867 19.422C34.0253 19.2447 33.764 19.0533 33.5027 18.848C33.2507 18.6427 33.0313 18.3813 32.8447 18.064C32.6673 17.7467 32.5787 17.364 32.5787 16.916C32.5787 16.468 32.8027 15.8473 33.2507 15.054C33.6987 14.2513 34.1093 13.8173 34.4827 13.752C34.856 13.6867 35.528 13.654 36.4987 13.654ZM49.5414 15.488L47.3154 15.684C47.0821 15.684 46.8114 15.4833 46.5034 15.082C46.2048 14.6807 46.0554 14.3727 46.0554 14.158C46.0554 13.8033 47.0588 13.626 49.0654 13.626C50.1854 13.626 50.8201 13.696 50.9694 13.836C51.1841 14.032 51.3848 14.326 51.5714 14.718C51.7674 15.1007 51.8654 15.4553 51.8654 15.782C51.8654 15.9687 51.7628 16.2487 51.5574 16.622C51.3614 16.9953 51.2074 17.2847 51.0954 17.49C50.9834 17.686 50.8201 17.9613 50.6054 18.316C50.4001 18.6613 50.2088 18.9833 50.0314 19.282C49.8634 19.5713 49.6301 19.996 49.3314 20.556C49.0328 21.1067 48.7854 21.564 48.5894 21.928C48.4028 22.2827 48.2068 22.6327 48.0014 22.978C47.6094 23.6593 47.3061 24 47.0914 24C46.8861 24 46.6761 23.8693 46.4614 23.608C46.2561 23.3467 46.1534 23.0713 46.1534 22.782C46.1534 22.4833 46.3541 21.956 46.7554 21.2C47.1661 20.444 47.6094 19.6973 48.0854 18.96C49.3828 16.9907 50.0314 15.88 50.0314 15.628C50.0314 15.5347 49.8681 15.488 49.5414 15.488ZM62.4137 14.928C62.4137 15.516 62.3297 16.1787 62.1617 16.916C61.9937 17.644 61.835 18.2927 61.6857 18.862C61.5363 19.4313 61.401 19.982 61.2797 20.514C61.1677 21.046 61.0697 21.48 60.9857 21.816C60.911 22.1427 60.8223 22.4787 60.7197 22.824C60.5143 23.4867 60.2903 23.818 60.0477 23.818C59.833 23.818 59.5857 23.6827 59.3057 23.412C59.035 23.132 58.8997 22.88 58.8997 22.656C58.8997 22.432 59.0023 21.9187 59.2077 21.116C59.413 20.3133 59.6183 19.2633 59.8237 17.966C60.0383 16.6593 60.1457 15.3013 60.1457 13.892C60.1457 13.6213 60.281 13.486 60.5517 13.486C60.8317 13.486 61.2097 13.682 61.6857 14.074C62.171 14.466 62.4137 14.7507 62.4137 14.928ZM71.801 21.914C73.4717 21.606 74.7363 21.452 75.595 21.452C76.463 21.452 76.897 21.6387 76.897 22.012C76.897 22.3667 76.155 22.7493 74.671 23.16C73.1963 23.5707 72.0623 23.776 71.269 23.776C70.9423 23.776 70.5457 23.566 70.079 23.146C69.6123 22.726 69.379 22.3527 69.379 22.026C69.379 21.8113 69.9763 21.214 71.171 20.234C71.6657 19.8233 72.1603 19.394 72.655 18.946C73.1497 18.4887 73.5697 18.022 73.915 17.546C74.2697 17.07 74.447 16.6453 74.447 16.272C74.447 15.8893 74.2697 15.698 73.915 15.698C73.6443 15.698 73.4017 15.8007 73.187 16.006C72.9817 16.202 72.8183 16.4027 72.697 16.608C72.585 16.804 72.501 16.902 72.445 16.902C72.2023 16.902 71.8943 16.7713 71.521 16.51C71.157 16.2393 70.975 16.006 70.975 15.81C70.975 15.278 71.255 14.774 71.815 14.298C72.3843 13.8127 73.0657 13.57 73.859 13.57C74.6617 13.57 75.2917 13.8173 75.749 14.312C76.2063 14.7973 76.435 15.418 76.435 16.174C76.435 17.1913 75.9963 18.2133 75.119 19.24C74.251 20.2667 73.145 21.158 71.801 21.914ZM86.3578 19.03V18.974C86.3578 18.862 86.4092 18.7687 86.5118 18.694C86.6332 18.5447 86.8712 18.3393 87.2258 18.078C87.5805 17.8167 87.9118 17.574 88.2198 17.35C88.5372 17.1167 88.8218 16.8413 89.0738 16.524C89.3258 16.2067 89.4518 15.8987 89.4518 15.6C89.4518 15.488 89.4098 15.432 89.3258 15.432C89.0178 15.432 88.5792 15.586 88.0098 15.894C87.4405 16.1927 87.0765 16.342 86.9178 16.342C86.7592 16.342 86.5072 16.1787 86.1618 15.852C85.8165 15.516 85.6438 15.2687 85.6438 15.11C85.6438 14.8487 85.8632 14.5967 86.3018 14.354C86.7405 14.102 87.2398 13.9107 87.7998 13.78C88.3692 13.64 88.8685 13.57 89.2978 13.57C89.9138 13.57 90.4458 13.794 90.8938 14.242C91.3512 14.69 91.5798 15.1613 91.5798 15.656C91.5798 16.1507 91.3698 16.664 90.9498 17.196C90.5392 17.7187 90.0258 18.19 89.4098 18.61C90.7165 18.8993 91.3698 19.492 91.3698 20.388C91.3698 20.9573 91.0385 21.5173 90.3758 22.068C89.7225 22.6093 88.9292 23.0387 87.9958 23.356C87.0625 23.6733 86.1805 23.832 85.3498 23.832C84.3418 23.832 83.8378 23.6127 83.8378 23.174C83.8378 22.9313 84.6778 22.5627 86.3578 22.068C86.9832 21.8907 87.5572 21.648 88.0798 21.34C88.6118 21.032 88.8778 20.7147 88.8778 20.388C88.8778 20.2107 88.7845 20.0753 88.5978 19.982C88.4112 19.8793 88.2012 19.814 87.9678 19.786C87.2585 19.702 86.7965 19.576 86.5818 19.408C86.4325 19.3147 86.3578 19.1887 86.3578 19.03Z" fill="black"/>
</svg>
