<svg width="110" height="40" viewBox="0 0 110 40" fill="none" xmlns="http://www.w3.org/2000/svg">
<rect width="110" height="40" fill="#F2F2F2"/>
<path d="M21.9194 15.894C22.1527 15.894 22.4654 16.0667 22.8574 16.412C23.2587 16.7573 23.4594 17.042 23.4594 17.266C23.4594 17.8073 23.128 19.1093 22.4654 21.172C21.8027 23.2253 21.3034 24.252 20.9674 24.252C20.79 24.252 20.5894 24.1213 20.3654 23.86C20.1507 23.5893 20.0434 23.3607 20.0434 23.174C20.0434 22.9873 20.0667 22.7913 20.1134 22.586C20.16 22.3713 20.2067 22.1753 20.2534 21.998C20.3094 21.8113 20.3887 21.55 20.4914 21.214C20.6034 20.878 20.692 20.6073 20.7574 20.402C20.0854 20.6353 19.4227 20.752 18.7694 20.752C18.1254 20.752 17.6214 20.5747 17.2574 20.22C16.9027 19.8653 16.7254 19.3893 16.7254 18.792C16.7254 18.3627 16.954 17.7093 17.4114 16.832C17.878 15.9547 18.3914 15.166 18.9514 14.466C19.5114 13.766 19.908 13.416 20.1414 13.416C20.384 13.416 20.6314 13.5327 20.8834 13.766C21.1447 13.9993 21.2754 14.2187 21.2754 14.424C21.2754 14.62 20.8367 15.3387 19.9594 16.58C19.0914 17.8213 18.6574 18.554 18.6574 18.778C18.6574 18.8713 18.676 18.932 18.7134 18.96C18.7507 18.988 18.8347 19.002 18.9654 19.002C19.2827 19.002 19.74 18.876 20.3374 18.624C20.9347 18.372 21.2567 18.2413 21.3034 18.232C21.4247 17.5693 21.4854 16.93 21.4854 16.314C21.4854 16.034 21.63 15.894 21.9194 15.894ZM34.641 14.928C34.641 15.516 34.557 16.1787 34.389 16.916C34.221 17.644 34.0623 18.2927 33.913 18.862C33.7637 19.4313 33.6283 19.982 33.507 20.514C33.395 21.046 33.297 21.48 33.213 21.816C33.1383 22.1427 33.0497 22.4787 32.947 22.824C32.7417 23.4867 32.5177 23.818 32.275 23.818C32.0603 23.818 31.813 23.6827 31.533 23.412C31.2623 23.132 31.127 22.88 31.127 22.656C31.127 22.432 31.2297 21.9187 31.435 21.116C31.6403 20.3133 31.8457 19.2633 32.051 17.966C32.2657 16.6593 32.373 15.3013 32.373 13.892C32.373 13.6213 32.5083 13.486 32.779 13.486C33.059 13.486 33.437 13.682 33.913 14.074C34.3983 14.466 34.641 14.7507 34.641 14.928ZM46.7583 16.706C46.7583 15.8193 46.6323 15.376 46.3803 15.376C46.2217 15.376 46.0117 15.544 45.7503 15.88C45.489 16.2067 45.2277 16.622 44.9663 17.126C44.705 17.6207 44.481 18.204 44.2943 18.876C44.1077 19.548 44.0143 20.1827 44.0143 20.78C44.0143 21.676 44.1637 22.124 44.4623 22.124C44.7143 22.124 45.0223 21.816 45.3863 21.2C45.7503 20.5747 46.0677 19.828 46.3383 18.96C46.6183 18.0827 46.7583 17.3313 46.7583 16.706ZM47.5423 21.172C47.1877 21.9187 46.735 22.5487 46.1843 23.062C45.6337 23.566 45.041 23.818 44.4063 23.818C43.7717 23.818 43.2023 23.4867 42.6983 22.824C42.2037 22.152 41.9563 21.4287 41.9563 20.654C41.9563 19.87 42.0917 19.0347 42.3623 18.148C42.633 17.252 42.9783 16.4727 43.3983 15.81C43.8183 15.138 44.2897 14.592 44.8123 14.172C45.3443 13.752 45.8577 13.542 46.3523 13.542C47.0897 13.542 47.673 13.8033 48.1023 14.326C48.5317 14.8487 48.7463 15.5953 48.7463 16.566C48.7463 17.2287 48.6343 17.9753 48.4103 18.806C48.1957 19.6367 47.9063 20.4253 47.5423 21.172ZM57.6008 19.03V18.974C57.6008 18.862 57.6521 18.7687 57.7548 18.694C57.8761 18.5447 58.1141 18.3393 58.4688 18.078C58.8235 17.8167 59.1548 17.574 59.4628 17.35C59.7801 17.1167 60.0648 16.8413 60.3168 16.524C60.5688 16.2067 60.6948 15.8987 60.6948 15.6C60.6948 15.488 60.6528 15.432 60.5688 15.432C60.2608 15.432 59.8221 15.586 59.2528 15.894C58.6835 16.1927 58.3195 16.342 58.1608 16.342C58.0021 16.342 57.7501 16.1787 57.4048 15.852C57.0595 15.516 56.8868 15.2687 56.8868 15.11C56.8868 14.8487 57.1061 14.5967 57.5448 14.354C57.9835 14.102 58.4828 13.9107 59.0428 13.78C59.6121 13.64 60.1115 13.57 60.5408 13.57C61.1568 13.57 61.6888 13.794 62.1368 14.242C62.5941 14.69 62.8228 15.1613 62.8228 15.656C62.8228 16.1507 62.6128 16.664 62.1928 17.196C61.7821 17.7187 61.2688 18.19 60.6528 18.61C61.9595 18.8993 62.6128 19.492 62.6128 20.388C62.6128 20.9573 62.2815 21.5173 61.6188 22.068C60.9655 22.6093 60.1721 23.0387 59.2388 23.356C58.3055 23.6733 57.4235 23.832 56.5928 23.832C55.5848 23.832 55.0808 23.6127 55.0808 23.174C55.0808 22.9313 55.9208 22.5627 57.6008 22.068C58.2261 21.8907 58.8001 21.648 59.3228 21.34C59.8548 21.032 60.1208 20.7147 60.1208 20.388C60.1208 20.2107 60.0275 20.0753 59.8408 19.982C59.6541 19.8793 59.4441 19.814 59.2108 19.786C58.5015 19.702 58.0395 19.576 57.8248 19.408C57.6755 19.3147 57.6008 19.1887 57.6008 19.03ZM75.4038 13.654C77.1118 13.654 77.9658 13.8593 77.9658 14.27C77.9658 14.4473 77.8211 14.6013 77.5318 14.732C77.1864 14.9 76.7664 15.04 76.2718 15.152C75.7864 15.264 75.3944 15.3527 75.0958 15.418C74.8064 15.4833 74.5778 15.5393 74.4098 15.586C74.2418 15.6233 74.0738 15.8147 73.9058 16.16C73.7471 16.5053 73.6678 16.776 73.6678 16.972C73.6678 17.168 73.7564 17.3733 73.9338 17.588C74.1204 17.8027 74.3444 18.0127 74.6058 18.218C74.8671 18.4233 75.1284 18.638 75.3898 18.862C76.0151 19.394 76.3278 19.9353 76.3278 20.486C76.3278 21.3353 75.9078 22.1147 75.0678 22.824C74.2371 23.524 73.4204 23.874 72.6178 23.874C71.8151 23.874 71.1291 23.6593 70.5598 23.23C69.9998 22.7913 69.7198 22.2967 69.7198 21.746C69.7198 21.5687 69.7524 21.4147 69.8178 21.284C69.8831 21.1533 69.9718 21.088 70.0838 21.088C70.1958 21.088 70.3404 21.172 70.5178 21.34C71.0684 21.8627 71.5584 22.124 71.9878 22.124C72.4171 22.124 72.8791 21.9467 73.3738 21.592C73.8778 21.2373 74.1298 20.8827 74.1298 20.528C74.1298 20.2107 73.8171 19.842 73.1918 19.422C72.9304 19.2447 72.6691 19.0533 72.4078 18.848C72.1558 18.6427 71.9364 18.3813 71.7498 18.064C71.5724 17.7467 71.4838 17.364 71.4838 16.916C71.4838 16.468 71.7078 15.8473 72.1558 15.054C72.6038 14.2513 73.0144 13.8173 73.3878 13.752C73.7611 13.6867 74.4331 13.654 75.4038 13.654ZM86.3045 21.914C87.9752 21.606 89.2398 21.452 90.0985 21.452C90.9665 21.452 91.4005 21.6387 91.4005 22.012C91.4005 22.3667 90.6585 22.7493 89.1745 23.16C87.6998 23.5707 86.5658 23.776 85.7725 23.776C85.4458 23.776 85.0492 23.566 84.5825 23.146C84.1158 22.726 83.8825 22.3527 83.8825 22.026C83.8825 21.8113 84.4798 21.214 85.6745 20.234C86.1692 19.8233 86.6638 19.394 87.1585 18.946C87.6532 18.4887 88.0732 18.022 88.4185 17.546C88.7732 17.07 88.9505 16.6453 88.9505 16.272C88.9505 15.8893 88.7732 15.698 88.4185 15.698C88.1478 15.698 87.9052 15.8007 87.6905 16.006C87.4852 16.202 87.3218 16.4027 87.2005 16.608C87.0885 16.804 87.0045 16.902 86.9485 16.902C86.7058 16.902 86.3978 16.7713 86.0245 16.51C85.6605 16.2393 85.4785 16.006 85.4785 15.81C85.4785 15.278 85.7585 14.774 86.3185 14.298C86.8878 13.8127 87.5692 13.57 88.3625 13.57C89.1652 13.57 89.7952 13.8173 90.2525 14.312C90.7098 14.7973 90.9385 15.418 90.9385 16.174C90.9385 17.1913 90.4998 18.2133 89.6225 19.24C88.7545 20.2667 87.6485 21.158 86.3045 21.914Z" fill="black"/>
</svg>
